<?xml version="1.0" standalone="no"?>
<!DOCTYPE svg PUBLIC "-//W3C//DTD SVG 1.1//EN" "http://www.w3.org/Graphics/SVG/1.1/DTD/svg11.dtd" >
<!--
2013-9-30: Created.
-->
<svg>
<metadata>
Created by iconfont
</metadata>
<defs>

<font id="iconfont" horiz-adv-x="1024" >
  <font-face
    font-family="iconfont"
    font-weight="500"
    font-stretch="normal"
    units-per-em="1024"
    ascent="896"
    descent="-128"
  />
    <missing-glyph />
    
    <glyph glyph-name="quanxianguanli" unicode="&#58919;" d="M418.496 190.4 383.296 190.4l0 53.248 0 0C384 411.52 257.28 392.192 255.872 392.192L255.488 392.256c-133.504 0-125.632-146.112-125.632-148.608l0-53.248L91.84 190.4C76.032 190.4 64 179.136 64 164.48l0-201.152c0-14.72 12.032-25.856 27.84-25.856l326.656 0c15.808 0 28.096 11.136 28.096 25.856L446.592 164.48C446.592 179.136 434.24 190.4 418.496 190.4zM175.936 243.648c0 0.448-4.928 100.8 77.376 100.8 7.296-0.256 78.144 4.032 78.144-100.8l0-53.248-155.52 0L175.936 243.648zM960 6.976c0-61.12-77.824-69.504-77.824-69.504L635.776-62.528l-80.64 0c0 0-41.088-0.96-41.088 39.168l-1.344 196.928C514.304 362.624 464 431.232 348.8 468.736c-33.344 24.96-47.168 31.296-47.168 78.528 0 47.232 38.848 47.232 38.848 47.232s0-1.344 13.824 76.416c13.44 75.456 87.232 155.968 208.32 160.64L562.624 832c1.792 0 3.456-0.192 5.248-0.192C569.856 831.808 571.776 832 573.824 832l0-0.512c105.28-5.312 181.056-85.44 194.432-160.576 13.888-77.76 13.888-76.416 13.888-76.416s38.848 0 38.848-47.232c0-47.232-13.824-63.936-47.168-88.896C740.48 433.344 750.4 379.52 698.88 332.032c-27.52-25.344-47.232-44.48-47.232-80.64 0-36.032 19.456-44.352 38.848-55.488s150.016-47.232 211.136-88.96S960 43.072 960 6.976z"  horiz-adv-x="1024" />

    
    <glyph glyph-name="app6" unicode="&#59125;" d="M510.381 864c-264.202 0-478.381-214.179-478.381-478.381s214.179-478.381 478.381-478.381c264.204 0 478.381 214.179 478.381 478.381s-214.178 478.381-478.381 478.381zM161.186 335.972c-9.154 0-16.625 7.209-16.625 16.085v96.515c0 8.842 7.471 16.073 16.625 16.073h175.439l-76.384-128.673h-99.055zM269.535 154.432l-55.993-36.875c-7.53-4.987-12.86-1.823-11.816 6.962l7.471 63.096c1.042 8.782 8.372 12.379 16.301 7.981l43.33-24.063c7.914-4.416 8.238-12.149 0.707-17.101zM282.978 189.99l-43.33 24.066c-7.922 4.413-10.716 14.278-6.103 21.947l200.638 338.097c4.551 7.685 14.815 10.381 22.729 5.926l43.33-24.015c7.925-4.449 10.654-14.323 6.109-21.981l-200.641-338.125c-4.548-7.673-14.815-10.299-22.732-5.915zM435.686 335.972l76.378 128.673h43.98l62.029-128.673h-182.387zM684.458 297.572c-17.348 8.411-103.738 201.322-125.873 251.656-22.155 50.332-89.063 184.314-67.423 194.729 15.401 7.482 70.668-98.023 112.104-161.355 41.377-63.34 127.902-226.657 138.547-245.257 10.595-18.643-10.193-34.187-21.749-38.833-11.569-4.659-18.272-9.292-35.606-0.939zM741.227 208.9l-26.106 39.911c-5.397 8.29-2.594 18.539 6.16 22.923l24.881 12.382c8.774 4.333 19.754 0.83 24.42-7.859l20.596-38.324c4.683-8.676 1.492-19.805-6.956-24.696l-17.793-10.294c-8.445-4.971-19.806-2.272-25.203 5.957zM837.292 104.219c-5.453 16.904-47.090 18.029-65.732 43.496-18.705 25.373-3.248 38.451 3.247 44.483 75.612 41.212 62.484-87.98 62.484-87.98zM859.579 335.972h-87.819c-0.968 4.956-2.541 9.925-5.192 14.571-2.288 3.965-8.065 14.633-16.116 29.53-11.622 21.479-28.317 52.211-46.186 84.572h155.305c9.154 0 16.622-7.232 16.622-16.079v-96.509h0.008c-0.001-8.875-7.469-16.085-16.623-16.085z"  horiz-adv-x="1024" />

    
    <glyph glyph-name="app3" unicode="&#59129;" d="M36.102 287.35v129.161c0 11.833 9.719 21.512 21.628 21.512h228.23l-99.368-172.194h-128.862c-11.908 0-21.627 9.646-21.627 21.522v0zM198.681 22.882l-72.839-49.347c-9.799-6.671-16.73-2.438-15.373 9.319l9.721 84.437c1.353 11.751 10.889 16.564 21.204 10.68l56.368-32.202c10.295-5.911 10.717-16.257 0.918-22.887v0zM216.169 70.469l-56.368 32.204c-10.303 5.903-13.938 19.106-7.94 29.368l261.014 452.457c5.919 10.283 19.272 13.89 29.567 7.929l56.367-32.137c10.31-5.957 13.86-19.168 7.946-29.416l-261.014-452.493c-5.915-10.268-19.273-13.782-29.572-7.914v0zM414.827 265.828l99.362 172.194h57.215l80.693-172.194h-237.27zM738.456 214.439c-22.566 11.255-134.954 269.418-163.748 336.775-28.821 67.358-115.864 246.658-87.712 260.596 20.036 10.013 91.934-131.18 145.838-215.932 53.828-84.766 166.386-303.322 180.236-328.213 13.781-24.948-13.259-45.751-28.294-51.968-15.050-6.239-23.767-12.435-46.32-1.259v0zM812.308 95.773l-33.957 53.413c-7.022 11.093-3.377 24.807 8.014 30.674l32.365 16.57c11.416 5.8 25.699 1.112 31.77-10.519l26.791-51.284c6.093-11.61 1.942-26.503-9.046-33.051l-23.147-13.776c-10.989-6.652-25.768-3.039-32.79 7.972v0zM937.282-44.314c-7.095 22.62-61.26 24.128-85.512 58.207-24.332 33.957-4.224 51.457 4.223 59.532 98.365 55.151 81.29-117.739 81.29-117.739v0zM987.898 287.35c0-11.877-9.715-21.523-21.623-21.523h-114.245c-1.259 6.63-3.305 13.28-6.756 19.497-2.975 5.309-10.493 19.583-20.963 39.518-15.118 28.747-36.84 69.873-60.085 113.181h202.039c11.908 0 21.623-9.678 21.623-21.518v-129.156h0.010zM987.898 287.35z"  horiz-adv-x="1024" />

    
    <glyph glyph-name="shangpinguanli2" unicode="&#59010;" d="M893.617487 588.833155l-87.198991 0c-23.317055 0-39.073924 22.896476-31.839149 45.062312 12.750395 39.065737 5.929036 72.061222 0.021489 89.464591-20.761859 61.089333-84.217077 105.424074-150.906965 105.424074-42.657542 0-77.117378-11.496845-103.522772-26.975375-10.882861-6.379291-24.037463-6.379291-34.920324 0-26.405393 15.47853-60.865229 26.975375-103.522772 26.975375-66.689888 0-130.146129-44.334741-150.906965-105.424074-5.906523-17.403369-12.728906-50.399877 0.021489-89.464591 7.234775-22.165836-8.522094-45.062312-31.839149-45.062312l-69.203128 0c-18.691711 0-33.845853-15.152095-33.845853-33.845853l0-28.2893c0-18.691711 15.154141-33.845853 33.845853-33.845853l763.818259 0c18.691711 0 33.845853 15.154141 33.845853 33.845853l0 28.2893C927.46334 573.68106 912.310222 588.833155 893.617487 588.833155zM663.955854 632.801553c-6.249331-6.832615-15.256472-10.471492-24.51637-10.471492l-273.458115 0c-9.259898 0-18.267039 3.6399-24.51637 10.471492-15.032368 16.436344-27.205619 37.739533-19.74981 59.686381 7.662517 22.61302 34.024931 40.316218 60.011792 40.316218 55.81726 0 77.187987-32.32522 78.945003-35.126009l12.115945-21.398356c12.712533-22.453385 44.864814-22.994714 58.32743-0.982374l13.141298 21.490453c2.249227 3.691065 23.619954 36.016285 79.437214 36.016285 25.986861 0 52.349275-17.703197 60.011792-40.316218C691.161473 670.542108 678.988222 649.23892 663.955854 632.801553zM401.572982 151.613302l-6.861268-3.961218 14.106276-24.433482 31.57002 18.226107c14.008039-17.33276 34.183544-29.424146 57.218166-32.987299l0-28.541033 0-7.960299 28.211529 0 0 7.960299 0 28.532847c23.038716 3.569292 43.240827 15.641235 57.221236 32.993438l24.574698-14.18814-0.001023-0.001023 6.986111-4.03285 0.001023 0.001023 0.004093-0.001023 14.105253 24.431435-31.644721 18.270109c3.507894 9.079796 5.695722 18.819624 6.131651 29.036313l0.001023 0c0.057305 1.321088 0.200568 2.62171 0.200568 3.956102 0 1.335415-0.143263 2.635013-0.200568 3.957125l-0.001023-0.001023c-0.436952 10.215666-2.62478 19.954471-6.131651 29.034267l31.644721 18.270109-14.105253 24.431435-0.004093-0.00307-0.001023 0.00307-6.984065-4.03285 0.001023-0.001023-24.576745-14.190187c-13.980409 17.353227-34.18252 29.427216-57.221236 32.994462l0 28.532847 0 7.958252-28.211529 0 0-7.958252 0-28.54001c-23.034623-3.565199-43.210128-15.657608-57.220213-32.989345l-31.567973 18.226107-14.106276-24.434505 6.861268-3.960195 0 0.001023 24.645306-14.229073c-3.977591-10.259668-6.196119-21.398356-6.196119-33.069163 0-11.672854 2.218528-22.811542 6.196119-33.072233l-24.644283-14.228049C401.574005 151.612279 401.574005 151.613302 401.572982 151.613302zM511.710404 255.335618c31.111578 0 56.423057-25.311479 56.423057-56.423057 0-31.112602-25.311479-56.423057-56.423057-56.423057-31.112602 0-56.423057 25.310456-56.423057 56.423057C455.286324 230.02414 480.596779 255.335618 511.710404 255.335618zM511.710404 198.912561m-28.211529 0a27.569 27.569 0 1 0 56.423057 0 27.569 27.569 0 1 0-56.423057 0ZM127.788431 30.946059c0-53.008284 42.971697-95.981005 95.981005-95.981005l575.883983 0c53.009308 0 95.981005 42.97272 95.981005 95.981005L895.634424 462.860069 127.788431 462.860069 127.788431 30.946059zM391.814734 198.914608c0 6.609535 0.678452 13.049201 1.710968 19.370163l-37.353746 21.564132 42.316781 73.29533 37.289278-21.526269c9.978259 8.18645 21.346167 14.687514 33.619702 19.340487l0 43.1211 84.634586 0 0-43.1211c12.272511-4.652973 23.639396-11.154038 33.617655-19.340487l37.283138 21.526269 42.316781-73.293283-37.347606-21.564132c1.033539-6.320962 1.711991-12.761652 1.711991-19.371186s-0.678452-13.050224-1.711991-19.371186l37.34863-21.565155-42.317805-73.296353-37.286208 21.527292c-9.976212-8.18645-21.343097-14.686491-33.614585-19.339464l0-43.122123-84.634586 0 0 43.122123c-12.274558 4.652973-23.64042 11.154038-33.618679 19.342534l-37.289278-21.533432-42.319851 73.302493 37.355793 21.564132C392.493186 185.865407 391.814734 192.306096 391.814734 198.914608z"  horiz-adv-x="1024" />

    
    <glyph glyph-name="feiyongshenpiliebiao" unicode="&#58921;" d="M191.113 551.37h403.28v-77.62h-403.28v77.62z m661.974-329.783c4.75 5.475 9.158 12.319 13.196 20.26 4.065 7.918 2.83 15.134-3.507 21.48l-11.448 11.972c-5.976 6.353-9.855 9.853-11.45 10.755-8.102 5.45-15.673 6.321-22.897 2.288-7.224-3.868-14.447-9.52-21.647-16.736-18.512-18.317-36.629-36.104-54.785-53.711a7592.047 7592.047 0 0 1-51.067-50.036c-5.628-5.62-11.981-8.974-18.672-10.2-6.854-1.048-12.328 1.048-16.374 6.691l-11.28 11.797a989.615 989.615 0 0 0-16.375 17.962l-16.214 18.503c-5.257 5.99-8.966 10.214-11.448 12.49-4.741 4.054-10.2 6.537-16.206 7.755-5.975 1.234-12.327-0.878-18.65-6.52l-5.998-5.453c-3.346-2.628-6.507-5.812-9.699-9.505-3.16-3.53-6.322-6.7-9.667-9.514l-5.99-5.28c-11.965-12.869-10.4-27.485 4.926-44.206 4.757-5.637 11.103-12.514 19.205-20.963a2191.66 2191.66 0 0 0 25.187-26.776c8.973-9.498 17.793-18.832 26.582-28 8.812-9.143 16.392-16.552 22.898-22.019 6.354-6.499 15.14-9.32 26.435-8.973 11.256 0.346 19.737 3.7 25.18 10.045 11.264 10.383 24.13 22.889 38.577 37.683 14.44 14.617 29.582 29.598 45.079 44.73a2774.788 2774.788 0 0 1 45.778 44.74c14.825 14.608 28.373 27.646 40.353 38.74h-0.022zM689.458 461.278c36.129 0 70.126-6.862 102.176-20.777 32.234-13.916 60.226-32.923 84.358-56.706 23.945-23.792 43.142-51.792 57.043-83.48 14.107-31.87 21.147-65.692 21.147-101.44 0-36.637-7.04-70.814-21.147-102.508-13.9-31.878-33.098-59.702-57.043-83.663-24.131-23.762-52.124-42.427-84.358-55.996-32.049-13.59-66.047-20.26-102.176-20.26-36.974 0-71.482 6.67-103.546 20.26-32.04 13.563-60.227 32.234-84.173 55.996-24.132 23.961-43.151 51.784-57.245 83.663-14.092 31.694-21.131 65.871-21.131 102.508 0 35.748 7.04 69.57 21.131 101.44 14.094 31.688 33.113 59.687 57.245 83.48 23.945 23.783 52.132 42.79 84.173 56.706 32.064 13.915 66.572 20.777 103.546 20.777z m-498.345-56.814h224.933v-77.62H191.113v77.62zM191.1 257.56h128.888v-77.62H191.1v77.62z m255.97-258.993H131.404v688.16h523.75v-181.721c5.39 0.285 10.823 0.44 16.282 0.44 16.744 0 33.19-1.38 49.21-4.001V747.887H64.09v-810.474h460.052a303.919 303.919 0 0 0-77.073 61.153z"  horiz-adv-x="1024" />

    
    <glyph glyph-name="APPbanbenguanli" unicode="&#58893;" d="M1017.365793 896v-36.818797c-39.443503-4.88487-67.002919-15.237878-82.678249-30.986116-15.748238-15.748238-32.444286-45.786543-50.161053-90.042008L548.126633-127.927091h-39.880954L130.506697 755.942755c-18.664578 42.214026-34.923176 68.533998-48.629975 78.887006C68.024106 845.109861 42.943579 853.275614 6.562233 859.181203V896h495.777857v-36.818797c-51.181773 0-85.157138-3.499608-101.780278-10.353008-16.768957-6.926308-25.153435-24.132716-25.153435-51.692132 0-10.863368 6.197223-31.861018 18.518761-62.774226 12.321538-31.059025 20.924742-52.494126 25.88252-64.305304l193.499182-466.906088 187.229049 486.153934c8.749021 21.726735 15.894055 40.901673 21.216376 57.597721 5.39523 16.696048 8.092844 31.569384 8.092844 44.328373 0 45.203275-42.359843 67.877821-126.933713 67.877822V896h314.454397z"  horiz-adv-x="1024" />

    
    <glyph glyph-name="shangpinguanli" unicode="&#58920;" d="M893.056 863.232H129.792C75.52 863.232 31.488 819.2 31.488 764.928v-763.392c0-54.272 44.032-98.304 98.304-98.304h763.392c54.272 0 98.304 44.032 98.304 98.304V765.056c-0.128 54.144-44.16 98.176-98.432 98.176z m-86.912-272.768l-2.048-1.024-0.256-2.304c-20.864-144.384-146.688-253.312-292.352-253.312-145.792 0-271.488 108.928-292.352 253.312l-0.384 2.304-2.048 1.024c-14.464 8.576-23.168 23.168-23.168 39.168 0 25.344 20.608 45.952 45.952 45.952 25.344 0 45.952-20.608 45.952-45.952 0-13.312-6.016-25.856-17.024-34.944l-2.176-1.664 0.512-2.688c19.328-121.088 122.24-209.024 244.864-209.024 122.496 0 225.536 87.936 244.864 209.024l0.512 2.688-2.048 1.664c-11.136 9.216-17.024 21.632-17.024 34.944 0 25.344 20.608 45.952 45.952 45.952 25.344 0 45.952-20.608 45.952-45.952-0.512-16-9.088-30.592-23.68-39.168z"  horiz-adv-x="1024" />

    
    <glyph glyph-name="xitongguanli" unicode="&#58933;" d="M860.017 126.492l-179.65 177.423c11.576 24.292 18.013 51.474 18.013 79.997 0 102.973-83.165 186.238-186.265 186.238-17.124 0-33.97-2.305-49.751-6.688l79.694-79.44c33.058-33.285 30.521-88.99-5.347-124.78-35.717-35.595-91.676-38.104-124.733-5.373l-79.517 80.021c-4.407-15.881-6.713-32.551-6.713-49.979 0-103.15 83.443-186.796 186.315-186.796 28.317 0 55.782 6.484 79.72 18.166l178.866-177.807c22.849-22.394 60.971-21.05 85.468 3.831 24.471 24.315 26.216 62.82 3.9 85.187z m-48.232-72.349c-17.326 0-31.966 14.165-31.966 31.768 0 17.027 14.64 31.008 31.966 31.008 17.504 0 31.589-13.964 31.589-31.008 0-17.603-14.085-31.768-31.589-31.768z m91.297 412.478h-18.188l-42.404 0.378h-0.3c-8.518 0.787-16.623 3.825-23.74 8.435-0.48 0-0.658 0.203-0.963 0.583-15.046 9.752-25.08 27.18-24.799 46.509 0 6.132 1.24 11.677 3.168 17.428 1.695 6.105 4.787 12.057 8.917 17.023l9.345 9.576 21.178 20.847 12.413 12.64c18.114 23.332 18.114 56.845-0.631 80.377l-36.375 37.315c-24.244 18.567-57.61 19.149-81.244 1.138l-13.22-12.616-29.465-30.244h-0.402c-16.083-13.02-38.276-15.503-56.64-7.448-6.335 2.862-11.982 6.486-17.506 11.855-8.714 9.373-14.087 20.67-15.58 32.727v61.229C593 804.034 569.441 827.39 539.117 830.836h-51.85c-29.791-3.268-53.78-26.599-58.011-56.083v-60.67c-0.177-1.545-0.76-3.243-0.862-4.611v-0.556c-0.48-1.52-0.632-3.066-0.836-4.41-0.582 0-0.582-0.583-0.582-0.583-0.532-1.341-0.836-3.444-1.595-4.38-0.509-1.724-1.47-3.065-2.206-4.61v-0.18c-3.166-6.508-7.573-12.056-13.501-16.843-9.575-8.234-22.419-13.197-36.172-13.197-12.92 0-24.978 4.381-34.3 12.056l-9.447 9.55-21.103 20.67-12.818 13.022c-23.557 17.984-56.943 17.984-80.402-0.962l-37.187-36.732c-18.744-23.356-19.05-56.844-1.139-80.78l12.818-12.616 30.043-29.867c0.583-0.962 1.039-1.722 1.621-2.66 0.404-0.177 0.76-0.963 1.545-1.924 0.406-0.56 0.736-1.698 1.342-2.484 0-0.18 0.989-1.141 0.989-1.723 0.532-0.76 1.138-2.103 1.773-3.066 0-0.557 0.203-1.14 0.506-1.722 0.557-0.759 0.76-2.103 1.621-3.268 0-0.38 0.1-0.962 0.303-1.518 0.153-1.725 1.039-3.066 1.039-4.763 0.482-1.724 0.735-3.243 0.735-4.99 2.432-16.467-3.142-33.692-15.984-46.333-9.07-9.193-20.721-14.54-32.803-15.881h-60.697c-29.764-4.232-53.221-27.943-56.565-57.427l-0.176-52.26c3.039-30.043 26.395-53.576 56.083-57.605h18.264l42.33-0.584c1.52-0.174 3.648-0.174 5.066-0.758h1.444c1.345-0.559 2.104-0.96 3.649-1.14 22.874-7.09 39.416-28.345 39.416-53.598 0-12.82-4.383-25.283-12.135-34.83l-9.297-8.998-21.33-20.87-12.739-12.645c-17.784-23.94-17.784-57.225 0.657-80.579l37.036-37.308c23.633-18.774 56.742-18.948 80.755-0.76l12.616 12.61 30.373 29.664c0 0.385 0.254 0.385 0.633 0.586 1.141 1.133 2.407 1.719 3.269 2.862 1.039 0.175 1.241 0.175 2.001 0.76 0.56 0.375 1.545 1.16 2.306 1.72 1.039 0.584 2.38 0.758 3.444 1.343 0.66 0.385 1.166 0.559 1.369 0.96 1.595 0.183 2.66 0.759 4.76 1.343 1.825 0.559 3.066 1.344 4.41 1.344h0.506c1.445 0.384 2.963 0.584 4.61 0.96h0.38c1.368 0 2.686 0 3.825 0.584 15.503 0.559 31.182-4.783 42.708-16.67 9.55-9.172 14.54-21.049 16.187-33.103l-0.203-13.021v-47.475c3.624-30.066 27.46-53.603 57.198-56.667h52.338c29.992 3.064 53.498 26.401 57.627 55.707v17.986l0.48 30.625v12.06c1.17 10.918 5.07 19.908 11.1 27.937 0.58 0.96 1.135 1.545 1.72 2.104 0.38 0.2 0.839 1.343 1.725 1.719 3.32 3.648 7.063 6.894 11.17 9.757 1.244 0.175 2.483 1.143 3.268 1.72 0.935 0.56 0.935 0.56 1.344 0.56 0.554 0.173 0.934 0.173 1.038 0.173 1.061 0.769 1.92 0.769 3.164 1.344l-50.08 49.928c-21.705-6.3-44.583-9.373-68.217-9.373-135.423 0.185-244.5 109.844-244.044 244.606 0 135.497 110.066 244.98 245.285 244.601 135.039-0.556 244.07-110.243 243.868-245.388-0.104-22.948-3.573-45.748-9.705-66.393l50.462-49.6c2.584 5.93 6.686 11.096 11.277 16.289 5.19 4.966 12.078 8.788 18.361 11.271 4.74 2.104 9.6 3.647 14.287 4.229h61.046c29.664 4.031 53.124 27.561 56.466 57.224V409.09c-2.988 29.564-26.246 53.503-55.705 57.53z"  horiz-adv-x="1024" />

    
    <glyph glyph-name="guanli--APPyonghuguanli" unicode="&#58894;" d="M960.1 121l0.2 91s-60 11.9-61.1 16c-1.1 4.4-2.3 8.9-3.6 13.1 7 13 40.9 41.7 40.9 41.7l-67.8 90.1s-43.9-36.1-54.8-41.3c-5.1 2-10.4 3.8-16 5.4-5.9 1.5-22.2 59.3-22.2 59.3l-91.2 0.8s-9.9-56-24.5-59.9c-5-1.4-9.9-3.3-14.9-5.6-10.9 5.3-54.8 42-54.8 42L522.6 282s34-34.2 36.2-45.6c-1.4-3.6-2.8-7.3-4-11-14.6-5.1-56-13.3-56-13.3l0.2-91s48.1-10 57.3-18c1.9-5.3 4.1-10.4 6.4-15.4-11.1-13.9-40.9-37-40.9-37l69.8-91s54.9 35.5 63.9 37.5c4.5-1.9 9-3.8 13.7-5.4 8.2-2.9 14.1-55.9 14.1-55.9l91.1-0.3s3.1 52 9.8 54.1c6.6 2.1 13.1 4.5 19.3 7.2 7.7-3 43.6-38.8 43.6-38.8l90 91.7s-33.5 23.1-42.7 35.5c2.5 5.2 4.8 10.5 6.8 15.9 3.3 8.2 58.9 19.8 58.9 19.8m-231.6-68.9c-63.4 0-114.9 51.4-114.9 114.9 0 63.4 51.4 114.8 114.9 114.8S843.3 230.4 843.3 167s-51.4-114.9-114.8-114.9M436.3 401.4c104.5 0 210.8 102.7 210.8 211.5S545.8 832.4 441.4 832.4C336.9 832.4 233 719 233 610.3c0-108.8 98.8-208.9 203.3-208.9m45.9-45.3H273.3c-52.3 0-130.6-27.2-156.7-108.7-26.1-81.5-26.1-81.5-52.3-163.1-13.1-41 178.3-61.8 368.6-61.1 63.2 0.2 20.1 52.1 20.1 117.9 0 149.8 127.9 215 29.2 215m0 0"  horiz-adv-x="1024" />

    
    <glyph glyph-name="zitidian" unicode="&#58884;" d="M812 367.6c-62.8 0-114.8 43.6-129.2 102h-41.6c-14.4-58.4-66.4-102-129.2-102s-114.8 43.6-129.2 102h-41.6c-14.4-58.4-66.4-102-129.2-102-11.6 0-22.8 1.6-33.2 4.4v-71.6c8.8 0 16-7.2 16-16V51.2c0-28 22.8-50.8 50.8-50.8h533.2c28 0 50.8 22.8 50.8 50.8v233.2c0 8.8 7.2 16 16 16v71.6c-10.8-3.2-22-4.4-33.6-4.4zM212 399.6c46.8 0 87.2 32 98 77.6 3.6 14.4 16.4 24.4 31.2 24.4h41.6c14.8 0 27.6-10 31.2-24.4 11.2-45.6 51.6-77.6 98-77.6s87.2 32 98 77.6c3.6 14.4 16.4 24.4 31.2 24.4h41.6c14.8 0 27.6-10 31.2-24.4 11.2-45.6 51.6-77.6 98-77.6 56 0 101.2 45.6 101.2 101.2 0 2-1.2 22-39.2 111.2-20.4 47.6-40.8 91.2-40.8 91.6 0 0 0 0.4-0.4 0.4 0 0-6.4 13.6-15.6 26.8-11.6 16-19.6 20.4-22 20.8h-566.4c-2-0.4-10.4-4.8-22.4-21.6-9.2-13.2-15.2-26-15.2-26.4 0 0 0-0.4-0.4-0.4-0.4-0.4-20.8-44-40.8-91.6-38-89.2-39.2-109.2-39.2-111.2 0-55.6 45.2-100.8 101.2-100.8z m108.4 164h-66.8c-6.8 0-12 5.2-12 12s5.2 12 12 12h66.8c6.8 0 12-5.2 12-12s-5.6-12-12-12z m450 0h-333.2c-6.8 0-12 5.2-12 12s5.2 12 12 12h333.2c6.8 0 12-5.2 12-12s-5.6-12-12-12zM341.2 469.2h41.6c14.4-58.4 66.4-102 129.2-102s114.8 43.6 129.2 102h41.6c14.4-58.4 66.4-102 129.2-102 11.6 0 22.8 1.6 33.2 4.4 57.6 14.8 100 67.2 100 129.2 0 40.4-83.2 216.8-83.2 216.8s-30 66.8-66.8 66.8h-566.8c-36.8 0-66.8-66.8-66.8-66.8s-83.2-176.4-83.2-216.8c0-62 42.4-114.4 100-129.2 10.8-2.8 22-4.4 33.2-4.4 63.2 0.4 115.2 43.6 129.6 102z m-191.2 142.8c20.4 47.6 40.8 91.2 40.8 91.6 0 0 0 0.4 0.4 0.4 0 0 6 13.2 15.2 26.4 12 16.8 20.4 21.2 22.4 21.6h566.4c2-0.4 10.4-4.8 22-20.8 9.6-13.2 15.6-26.8 15.6-26.8s0-0.4 0.4-0.4c0.4-0.4 20.8-44 40.8-91.6 38-89.2 39.2-109.2 39.2-111.2 0-56-45.6-101.2-101.2-101.2-46.8 0-87.2 32-98 77.6-3.6 14.4-16.4 24.4-31.2 24.4h-41.6c-14.8 0-27.6-10-31.2-24.4-11.2-45.6-51.6-77.6-98-77.6s-87.2 32-98 77.6c-3.6 14.4-16.4 24.4-31.2 24.4h-41.6c-14.8 0-27.6-10-31.2-24.4-11.2-45.6-51.6-77.6-98-77.6-56 0-101.2 45.6-101.2 101.2 0 1.6 1.2 21.6 39.2 110.8zM829.2 284v-233.2c0-28-22.8-50.8-50.8-50.8h-533.2c-28 0-50.8 22.8-50.8 50.8v233.2c0 8.8-7.2 16-16 16s-16-7.2-16-16v-233.2c0-45.6 37.2-82.8 82.8-82.8h533.2c45.6 0 82.8 37.2 82.8 82.8v233.2c0 8.8-7.2 16-16 16s-16-7.2-16-16zM770.4 587.6h-333.2c-6.8 0-12-5.2-12-12s5.2-12 12-12h333.2c6.8 0 12 5.2 12 12s-5.6 12-12 12zM320.4 587.6h-66.8c-6.8 0-12-5.2-12-12s5.2-12 12-12h66.8c6.8 0 12 5.2 12 12s-5.6 12-12 12z"  horiz-adv-x="1024" />

    
    <glyph glyph-name="xitongguanli1" unicode="&#58909;" d="M525.881755 272.443245l-21.311747 82.559019a271.99677 271.99677 0 0 1 34.303593 33.919598l83.39101-21.375747c10.239878-2.55997 20.927751 2.815967 24.959703 12.415853l33.087607 79.103061a21.503745 21.503745 0 0 1-8.767896 26.687683l-73.599126 43.327485a263.740868 263.740868 0 0 1 0.255997 47.743433l73.983122 44.159476c9.215891 5.567934 12.799848 16.639802 8.959893 26.495685l-32.383615 79.103061a21.631743 21.631743 0 0 1-25.151701 12.60785l-82.55902-21.567744c-10.239878 12.799848-22.015739 24.575708-34.55959 35.199582l21.95174 82.55902a21.439745 21.439745 0 0 1-12.351854 25.2157L436.922812 893.619868a21.119749 21.119749 0 0 1-26.431687-8.767896l-43.711481-73.599126a263.036876 263.036876 0 0 1-48.447424 0.255997L275.004734 885.299967a21.375746 21.375746 0 0 1-26.431686 9.151891L169.213991 862.068243a21.759742 21.759742 0 0 1-12.607851-25.215701l21.759742-82.559019a258.55693 258.55693 0 0 1-35.39158-34.943585L60.799278 741.749672a21.759742 21.759742 0 0 1-25.343699-12.415853L2.367972 650.230759a21.439745 21.439745 0 0 1 8.959893-26.687684l73.599126-42.239498a278.524693 278.524693 0 0 1-1.471982-26.623684c0-7.487911 0.383995-15.16782 1.087987-22.655731L10.495875 488.312681a21.567744 21.567744 0 0 1-8.959893-26.431686L33.919597 382.713935c4.095951-10.047881 14.975822-15.359818 25.407698-12.60785l81.919028 22.015739c10.239878-12.60785 21.567744-24.127713 34.111595-34.55959l-21.11975-83.839004c-2.55997-10.239878 2.815967-20.927751 12.415853-24.959704l79.103061-33.087607c9.599886-4.031952 21.119749-0.447995 26.431686 8.767896l44.159475 73.599126c15.807812-1.535982 31.615625-1.535982 47.359438-0.255997l44.031477-73.983122a21.631743 21.631743 0 0 1 26.367687-8.959893l79.16706 32.383615a21.759742 21.759742 0 0 1 12.60785 25.215701z m-124.158525 221.821366c-32.191618-32.191618-88.574948-32.191618-120.766566 0a85.438985 85.438985 0 1 0 120.766566 0zM1023.539845 160.444575a20.991751 20.991751 0 0 1-18.559779 20.863752l-56.703327 7.487911a188.861757 188.861757 0 0 1-10.687873 25.407698l33.919597 46.719446a21.183748 21.183748 0 0 1-2.111975 27.71167l-43.519483 42.879491a21.247748 21.247748 0 0 1-27.967668 1.72798l-45.183463-35.007585a190.589737 190.589737 0 0 1-26.495685 10.879871l-8.127904 56.511329c-1.471983 10.687873-11.071869 17.535792-21.311747 18.367782l-61.247273-0.447995a21.183748 21.183748 0 0 1-20.863752-18.559779l-7.487911-56.703327c-4.671945-1.535982-9.343889-3.455959-14.079833-5.311937-4.031952-1.727979-7.871907-3.647957-11.711861-5.567934l-46.079452 34.111595a21.439745 21.439745 0 0 1-27.967668-2.111975l-42.879491-43.519483a21.119749 21.119749 0 0 1-1.66398-28.159665l34.943585-45.055465a174.845924 174.845924 0 0 1-10.879871-26.623684l-56.511329-7.935906A21.631743 21.631743 0 0 1 511.99392 156.796618l0.447995-61.247273c0.191998-10.623874 8.127903-19.839764 18.751777-20.863752l56.319331-6.847919c1.535982-4.863942 3.455959-9.791884 5.567934-14.527827 1.727979-4.031952 3.39196-7.871907 5.311937-11.711861l-33.919597-46.527447a21.375746 21.375746 0 0 1 2.175974-27.711671l43.519483-42.879491c7.679909-7.487911 19.583767-8.127903 28.159666-1.66398l44.543471 34.943585c8.319901-4.031952 17.087797-7.679909 26.047691-10.687873l9.151891-57.151322a21.119749 21.119749 0 0 1 20.927751-17.919787h0.191998l61.183274 0.447995a20.991751 20.991751 0 0 1 20.927751 18.367782l7.935906 56.959323c4.479947 1.66398 9.151891 3.39196 13.43984 5.311937 4.031952 1.727979 7.871907 3.39196 11.519863 5.311937l46.719446-33.919597a21.439745 21.439745 0 0 1 27.711671 2.175974l42.87949 43.519483a21.183748 21.183748 0 0 1 1.72798 27.903669l-34.815587 45.247463c4.031952 8.319901 7.679909 16.8318 10.495876 25.791693l57.151321 8.959894a21.311747 21.311747 0 0 1 17.919787 21.119749l-0.447995 61.247273z m-216.061434-48.447425a42.94349 42.94349 0 0 0-55.295343-23.679719 42.687493 42.687493 0 0 0 15.807812 82.367022c5.567934 0 10.879871-1.087987 15.807812-3.199962 10.623874-4.095951 19.007774-12.159856 23.423722-22.591732 4.479947-10.687873 4.479947-22.207736 0.255997-32.895609z"  horiz-adv-x="1024" />

    
    <glyph glyph-name="banben" unicode="&#58898;" d="M512.440496 895.150007C229.909979 895.150007 0.849993 666.101021 0.849993 383.580504c0-282.529517 229.060987-511.580504 511.591503-511.580504 282.499517 0 511.550504 229.050987 511.550504 511.580504C1023.991 666.100021 794.950013 895.151007 512.440496 895.151007z m0.685994-832.938679L183.438388 584.555737h166.10654l246.515833-390.615567-82.935271-131.728842z m119.266952 191.408318L548.475179 383.570504l126.858885 200.986233H841.412605l-209.018163-330.935091z"  horiz-adv-x="1024" />

    
    <glyph glyph-name="shouye" unicode="&#58882;" d="M505.4 696.4l-336-291.2v-380.8l67.2-67.2h179.2V203.60000000000002l22.4 44.8h112l44.8-67.2v-224h201.6l67.2 67.2V405.2zM281.4 763.6h-67.2V562l67.2 67.2zM958.8 445.9c-0.1 5.8-2.6 11.2-7 15l-427.4 367c-7.5 6.4-18.6 6.4-26.1 0L309.4 665.7v102c0 11-8.9 19.5-20 19.5h-88.1c-11.1 0-19.9-8.5-19.9-19.5v-211.9l-110.6-95c-4.4-3.8-7-9.3-7-15.2v-105.5c0-7.8 4.6-14.9 11.7-18.2 2.7-1.2 5.5-1.8 8.3-1.8 4.7 0 9.4 1.7 13.1 4.8l53.3 45.8v-324.1c0-60.7 49.4-110 110.1-110H765c60.7 0 110.1 49.4 110.1 110V370.4l51.6-44.3c6-5.1 14.4-6.3 21.5-3s11.7 10.5 11.6 18.3l-1 104.5zM221.3 747.3h48.1v-115.9l-48.1-41.3V747.3z m349.5-770.6H436.6V196.79999999999995c0 11 9 20 20 20h94.1c11 0 20-9 20-20l0.1-220.1z m264.3 424.8v-354.8c0-38.6-31.4-70-70.1-70H610.8V196.79999999999995c0 33.1-26.9 60-60.1 60h-94.1c-33.1 0-60.1-26.9-60.1-60v-220.1H260.4c-38.6 0-70.1 31.4-70.1 70V401.5c0 1.2-0.1 2.3-0.3 3.4l322.4 276.9 323-277.3c-0.2-0.9-0.3-2-0.3-3zM525.4 723.4c-7.5 6.4-18.6 6.4-26.1 0L103.9 383.70000000000005v52.7l407.4 349.8 407.5-349.9 0.5-51.2-393.9 338.3z"  horiz-adv-x="1024" />

    
    <glyph glyph-name="gaiicon-" unicode="&#59087;" d="M398.222222 384H170.666667c-62.577778 0-113.777778 51.2-113.777778 113.777778V725.333333c0 62.577778 51.2 113.777778 113.777778 113.777778h227.555555c62.577778 0 113.777778-51.2 113.777778-113.777778v-227.555555c0-62.577778-51.2-113.777778-113.777778-113.777778zM170.666667 725.333333v-227.555555h227.555555V725.333333H170.666667zM796.444444 384c-28.444444 0-56.888889 11.377778-79.644444 34.133333l-113.777778 113.777778c-45.511111 45.511111-45.511111 113.777778 0 159.288889l113.777778 113.777778c45.511111 45.511111 113.777778 45.511111 159.288889 0l113.777778-113.777778c45.511111-45.511111 45.511111-113.777778 0-159.288889l-113.777778-113.777778c-22.755556-22.755556-51.2-34.133333-79.644445-34.133333z m0 341.333333l-113.777777-113.777777 113.777777-113.777778 113.777778 113.777778-113.777778 113.777777zM398.222222-128H170.666667c-62.577778 0-113.777778 51.2-113.777778 113.777778v227.555555c0 62.577778 51.2 113.777778 113.777778 113.777778h227.555555c62.577778 0 113.777778-51.2 113.777778-113.777778v-227.555555c0-62.577778-51.2-113.777778-113.777778-113.777778z m-227.555555 341.333333v-227.555555h227.555555v227.555555H170.666667zM910.222222-128h-227.555555c-62.577778 0-113.777778 51.2-113.777778 113.777778v227.555555c0 62.577778 51.2 113.777778 113.777778 113.777778h227.555555c62.577778 0 113.777778-51.2 113.777778-113.777778v-227.555555c0-62.577778-51.2-113.777778-113.777778-113.777778z m-227.555555 341.333333v-227.555555h227.555555v227.555555h-227.555555z"  horiz-adv-x="1024" />

    
    <glyph glyph-name="banben1" unicode="&#59942;" d="M994.816 321.536l-434.688-185.344c-41.472-17.408-58.368-17.408-96.768 0L29.184 321.536C6.144 333.312 0 376.32 0 399.36c29.184-15.872 69.632-33.28 68.096-32.256l443.904-194.048 443.904 194.048c1.024 0 40.448 18.944 68.096 32.256 0-23.552-7.68-68.608-29.184-77.824z m0 194.048l-434.688-185.344c-41.472-17.408-58.368-17.408-96.768 0L29.184 515.584c-34.304 17.408-33.28 71.168 0 91.648l434.688 217.6c38.4 18.432 62.464 18.944 96.768 0l434.688-217.6c32.256-17.408 31.232-77.312-0.512-91.648zM512 787.968c2.56-0.512 3.072-3.584 0 0z m0-808.96l443.904 194.048c1.024 0 40.448 18.944 68.096 32.256 0-24.064-7.68-68.608-29.184-78.336l-434.688-185.344c-41.472-17.408-58.368-17.408-96.768 0L29.184 127.488C6.144 138.752 0 181.76 0 205.312c29.184-15.872 69.632-33.28 68.096-32.256l443.904-194.048z"  horiz-adv-x="1024" />

    
    <glyph glyph-name="kuaixun" unicode="&#59068;" d="M365.720426 896h511.97851L548.569894 554.681334h475.408617L109.73117-127.957021l292.559149 511.97851H0.021489z"  horiz-adv-x="1024" />

    
    <glyph glyph-name="yonghuguanli" unicode="&#58880;" d="M914.1 149.1c-3.1 11.7-7.7 22.7-13.6 32.9l25.9 39-0.1 0.1-36.8 36.8-0.1 0.1-39-25.9c-10.2 5.9-21.2 10.5-32.8 13.6l-9.3 45.9h-52.2l-9.3-45.9c-11.6-3.1-22.6-7.7-32.8-13.6L675 258l-0.1-0.1-36.8-36.8-0.1-0.1 25.9-39c-5.9-10.2-10.5-21.2-13.6-32.9l-45.9-9.3v-52.2l45.9-9.3c3.1-11.6 7.7-22.7 13.6-32.9l-25.9-39 0.1-0.1 36.8-36.8 0.1-0.1 39 25.9c10.2-5.9 21.2-10.5 32.8-13.6l9.3-45.9h52.2l9.3 45.9c11.6 3.1 22.6 7.7 32.8 13.6l39-25.9 0.1 0.1 36.8 36.8 0.1 0.1-25.9 39c5.9 10.2 10.5 21.2 13.6 32.9l45.9 9.3v52.2l-45.9 9.3zM782.3 52c-34.1 0-61.7 27.7-61.7 61.8 0 34.1 27.6 61.8 61.7 61.8s61.7-27.7 61.7-61.8c0-34.2-27.6-61.8-61.7-61.8z m-198.5 56c0 57.2 19.3 109.8 51.7 151.8-6.5 4.7-11.9 9.3-16.2 13.7-6.7 7-11.4 14-14 21.1-2.6 7.1-3.9 14.2-3.9 21.9 0 7.5 0.3 15.7 0.8 24.6 1.2 14 5.7 24.8 13.5 32.3 7.8 7.5 16.6 15.4 26.7 23.6 4.8 4.1 8.7 9.7 12.3 17.1 3.6 7.3 6.7 14.7 9.6 22.2 2.9 8.7 5.8 17.8 8.7 27 4.1 1.2 8.2 3.1 12.3 6.2 3.6 2.9 7.3 7 11.4 12.3 4.1 5.3 7.5 12.8 10.6 22.7 2.9 9.7 3.9 18.8 2.9 26.7-0.8 7.8-2.4 14.7-4.8 20.5-2.2 6.5-5.8 12.5-10.6 18.5 0.5 22.1-0.5 44.3-3.6 66.5-2.2 18.6-6.5 38.5-12.7 59.5-6.2 21-15 40-26.7 56.8-11.1 15.7-23.4 28.7-37.1 39-13.7 10.2-27.5 18.3-41.5 24.1-14 5.8-28 9.7-42.4 12.3-14.2 2.1-27.9 3.5-41.3 3.5v-0.2c-2.2 0.1-4.4 0.2-6.6 0.2-13.5 0-27.3-1.3-41.5-3.6-14.3-2.6-28.3-6.5-42.4-12.3-14-5.8-27.8-13.8-41.5-24.1-13.7-10.2-26-23.2-37.1-39-11.6-16.7-20.5-35.7-26.7-56.8-6.2-21.1-10.4-40.9-12.7-59.5-3.1-22.2-4.1-44.5-3.6-66.5-4.8-6-8.3-12-10.6-18.5-2.4-5.8-3.9-12.7-4.8-20.5-1-7.9 0-16.9 2.9-26.7 3.1-9.9 6.5-17.4 10.6-22.7 4.1-5.3 7.8-9.4 11.4-12.3 4.1-3.1 8.2-5 12.3-6.2 2.9-9.2 5.8-18.3 8.7-27 2.9-7.5 6-14.9 9.6-22.2 3.6-7.3 7.5-13 12.3-17.1 10.1-8.2 18.8-16.1 26.7-23.6 7.8-7.5 12.3-18.3 13.5-32.3 0.5-8.9 0.8-17.1 0.8-24.6 0-7.7-1.3-14.9-3.9-21.9-2.6-7-7.3-14-14-21.1-6.7-7-16.1-14.3-28.3-21.9-15.1-9.9-32.7-17.4-52.8-22.7-20.2-5.3-108-35.6-127-42.1-18.8-6.3-35.4-15.1-49.4-26.2-13.8-10.9-22.6-27.4-26.2-48.9-5.8-37.3-7-43.3-3.9-67.2 3.1-23.7 7.8-38 14.3-42.7 5.3-3.9 20.3-8.7 45.5-14.4 25-5.6 182.1-35.2 364.8-35.4v0.1c50.7 0.3 99.2 2.8 143.4 6.4-31 41.7-49.5 93.5-49.5 149.6z"  horiz-adv-x="1024" />

    
    <glyph glyph-name="kuaixun1" unicode="&#58923;" d="M512 896a512 512 0 1 1 0-1024A512 512 0 0 1 512 896z m279.744-433.344l-406.208-406.272a23.872 23.872 0 0 0-39.36 25.088L430.08 312.192H249.152a24 24 0 0 0-16.896 40.96L590.72 711.616a23.936 23.936 0 0 0 40.192-22.144l-41.28-186.048h185.28a23.936 23.936 0 0 0 16.832-40.768z m0 0"  horiz-adv-x="1024" />

    
    <glyph glyph-name="svg_huabanfuben" unicode="&#58969;" d="M926.72 191.48800000000006a178.688 178.688 0 0 1-27.648 60.416l31.232 51.2-28.16 29.696-53.76-32.256a174.592 174.592 0 0 1-56.832 22.528l-15.36 60.928h-38.912l-15.36-61.952a172.544 172.544 0 0 1-56.32-22.528L610.816 332.79999999999995l-27.648-27.648 31.232-51.2a177.152 177.152 0 0 1-28.16-59.904l-54.784-14.848v-38.912l51.2-12.8a175.616 175.616 0 0 1 26.112-70.656l-25.6-42.496 27.648-27.648 40.448 24.576a174.08 174.08 0 0 1 74.752-32.768l10.752-44.032h38.912l10.752 44.032a175.616 175.616 0 0 1 74.24 32.768l40.96-24.576 27.648 27.648-25.6 43.008a174.08 174.08 0 0 1 27.136 70.656l51.2 12.8V179.20000000000005z m-169.984-140.288a97.792 97.792 0 1 0 97.792 97.792 97.792 97.792 0 0 0-97.792-97.792z m-173.056 304.128a342.528 342.528 0 0 1-105.984 51.2 225.792 225.792 0 1 1-195.584 0 330.752 330.752 0 0 1-240.128-313.856 1510.912 1510.912 0 0 1 344.576-47.104 1104.384 1104.384 0 0 1 129.024 8.192 260.608 260.608 0 0 0 68.608 301.568z m0 0"  horiz-adv-x="1024" />

    
    <glyph glyph-name="guanggao1" unicode="&#59367;" d="M662.4 432h-70.4v-236.8h67.2c35.2 0 64 6.4 83.2 28.8 19.2 25.6 28.8 44.8 28.8 89.6s-12.8 70.4-28.8 89.6c-22.4 22.4-48 28.8-80 28.8zM294.4 291.2h99.2l-48 144-51.2-144zM886.4 691.2H137.6c-57.6 0-102.4-44.8-102.4-99.2v-566.4c0-54.4 48-99.2 102.4-99.2h748.8c57.6 0 102.4 44.8 102.4 99.2V592c0 54.4-44.8 99.2-102.4 99.2zM467.2 150.4h-25.6l-35.2 96h-128l-35.2-96H192L320 480h51.2l121.6-329.6h-25.6z m204.8 0h-134.4V480h137.6c41.6 0 76.8-16 102.4-44.8 25.6-28.8 41.6-70.4 41.6-121.6 0-51.2-16-89.6-41.6-121.6-25.6-25.6-60.8-41.6-105.6-41.6z m185.6 582.4h-704c-9.6 0-19.2 9.6-19.2 19.2s6.4 16 19.2 16h704c9.6 0 19.2-9.6 19.2-19.2s-9.6-16-19.2-16z m-608 73.6c-9.6 0-19.2 9.6-19.2 19.2s9.6 19.2 19.2 19.2h499.2c9.6 0 19.2-9.6 19.2-19.2s-9.6-19.2-19.2-19.2H249.6z"  horiz-adv-x="1024" />

    
    <glyph glyph-name="quanxianguanli3" unicode="&#58970;" d="M842.688 466.688h-72.96V637.12C769.728 779.904 654.208 896 512.064 896 369.856 896 254.208 779.904 254.208 637.12v-170.432H181.312a63.808 63.808 0 0 1-63.68-63.936V-64c0-35.392 28.48-64 63.68-64h661.504a63.808 63.808 0 0 1 63.616 64V402.752a63.872 63.872 0 0 1-63.744 63.936z m-294.912-309.504v-101.888a8.32 8.32 0 0 0-8.32-8.384h-54.784a8.384 8.384 0 0 0-8.384 8.384v101.888A79.488 79.488 0 0 0 512 307.52a79.488 79.488 0 0 0 35.776-150.336z m123.072 309.504H353.216V632.896a159.424 159.424 0 0 0 158.848 159.552 159.36 159.36 0 0 0 158.72-159.552l0.064-166.208z m0 0"  horiz-adv-x="1024" />

    
    <glyph glyph-name="dingdanguanli" unicode="&#59145;" d="M876.8 840h-81.6v-112h-560v112H147.2c-46.4 0-81.6-35.2-81.6-86.4v-795.2c0-46.4 35.2-86.4 81.6-86.4h728c46.4 0 81.6 35.2 81.6 86.4V753.6c1.6 46.4-35.2 86.4-80 86.4zM228.8 331.2h448v-56h-448v56z m561.6-230.4h-560v56h560v-56z m0 342.4h-560v56h560v-56zM315.2 784h392c16 0 25.6 9.6 25.6 30.4V865.6c0 16-9.6 30.4-25.6 30.4H315.2c-9.6 0-16-4.8-20.8-9.6s-9.6-9.6-9.6-20.8v-56c0-16 16-25.6 30.4-25.6z"  horiz-adv-x="1024" />

    
    <glyph glyph-name="guanggao2" unicode="&#58895;" d="M957.171 183.987c0-18.44-14.947-33.388-33.388-33.388H559.491v-167.763c0-30.606-25.041-55.646-55.646-55.646-30.606 0-55.646 25.041-55.646 55.646V150.599H100.216c-18.44 0-33.388 14.947-33.388 33.388 0 18.44 14.947 33.388 33.388 33.388h823.568c18.439 0 33.388-14.947 33.388-33.388z m-314.207 457.32h-29.345v-178.243h29.345c55.056-2.174 81.869 27.884 80.427 90.209 0.714 59.402-26.085 88.747-80.427 88.034zM335.169 522.841h74.992L372.12 628.264l-36.953-105.423z m591.953 218.977v-467.431H96.878V741.818c0 48.969 40.065 89.034 89.034 89.034h652.176c48.969 0 89.034-40.065 89.034-89.034zM490.587 435.895l-90.208 233.672h-54.342l-91.295-233.672h47.82l21.736 58.69h96.729l22.824-58.69h46.735zM769.038 554.36c0.714 77.522-40.943 115.918-124.987 115.207h-76.078v-233.672h78.254c85.485-3.618 126.43 35.865 122.813 118.466z"  horiz-adv-x="1024" />

    
    <glyph glyph-name="quanxianguanli1" unicode="&#58890;" d="M619.688242-128c-69.091032 0-136.193211 13.576085-199.317683 40.209424-60.962675 25.855092-115.699375 62.778585-162.740078 109.819287-47.040703 47.040703-83.964195 101.777402-109.732815 162.740078-26.719811 63.124472-40.209424 130.140179-40.209424 199.317683 0 69.091032 13.576085 136.193211 40.209424 199.317683C173.666286 644.280358 210.589779 699.10353 257.630481 746.057761 304.671184 793.098463 359.407884 830.021956 420.370559 855.790576c63.124472 26.719811 130.140179 40.209424 199.317683 40.209424s136.193211-13.576085 199.317683-40.209424C879.9686 830.021956 934.7053 793.098463 981.746002 746.057761c47.040703-47.040703 83.964195-101.777402 109.732816-162.740078 26.719811-63.124472 40.209424-130.140179 40.209424-199.317683 0-69.091032-13.576085-136.193211-40.209424-199.317683-25.76862-60.962675-62.692113-115.699375-109.732816-162.740078-47.040703-47.040703-101.777402-83.964195-162.740077-109.732815-63.210944-26.633339-130.226651-40.209424-199.317683-40.209424z m0 1020.627597c-280.428306 0-508.541125-228.112819-508.541125-508.541125S339.259936-124.454653 619.688242-124.454653s508.541125 228.112819 508.541125 508.541125-228.112819 508.541125-508.541125 508.541125zM533.821665 113.170073h-295.560885c0 93.476102 191.967573 182.109779 241.256545 191.967573 14.70022 4.928897 14.70022 49.375443 14.700219 49.375443-27.411586 32.426955-46.00304 71.425773-53.958453 113.105219C411.463955 462.689411 395.899017 531.693971 420.370559 556.5114c0 23.693295-34.329336 196.809998 137.922648 196.809998 172.338456 0 137.922648-173.203175 137.922648-196.809998 28.881608-24.817429 9.771322-93.82199-14.700219-93.821989-10.722513-41.506502-30.438102-80.159433-57.763216-113.105219-27.325114-33.032258 0-44.446546 14.70022-49.375443 22.050329-4.064178 43.581827-10.636041 64.075663-19.629117L533.821665 113.170073z m0 0M902.105401 457.760513c-32.686371 0.432359-64.248607-12.451951-87.336599-35.539942-23.174464-23.174464-35.972302-54.650228-35.539942-87.336599 0.259416-20.580307 5.274785-40.901199 14.700219-59.146765l-162.567133-162.567134L581.986502 14.765073l98.664415 49.029556 49.029556 49.375444 49.375443-49.375444v49.375444l-24.817429 24.558013 24.817429 24.81743 49.029556-49.375443v49.375443l-24.558014 24.558014 40.728255 39.258233c17.813207-9.252491 37.615268-14.354332 57.763216-14.700219 45.397737-2.161797 88.287789 20.753251 111.721669 59.752069 23.347408 38.998818 23.347408 87.682486 0 126.681303-23.347408 38.912346-66.23746 61.913866-111.635197 59.665597z m24.81743-147.780442c-13.316669-0.778247-26.287451 4.15065-35.712887 13.576085a46.60402 46.60402 0 0 0-13.576085 35.712886c-1.38355 18.504982 7.609525 36.231718 23.433879 45.830097a49.340855 49.340855 0 0 0 51.537241 0c15.824354-9.684851 24.903901-27.411586 23.433879-45.830097 0.864719-13.316669-4.064178-26.287451-13.403141-35.712886-9.425435-9.338963-22.396217-14.26786-35.712886-13.576085z m0 0"  horiz-adv-x="1440" />

    
    <glyph glyph-name="shangpinguanli3" unicode="&#58886;" d="M823.782101-126.645292H505.425681V202.070661h392.945058v-254.127315c0-41.039689-33.548949-74.588638-74.588638-74.588638zM505.425681 586.409339c-13.62677 3.665681-36.178677 9.642335-45.821012 18.56747-0.717198 0.63751-1.195331 1.434397-1.83284 2.151596-0.63751-0.717198-1.195331-1.434397-1.832841-2.151596-9.642335-9.004825-18.328405-14.90179-31.955175-18.56747v-302.89681h-413.584436V544.493074c0 41.039689 33.548949 74.588638 74.588639 74.588638h173.163579c-19.523735 10.917354-37.772451 23.667549-52.992996 37.85214-69.249494 64.54786-81.760623 157.544591-27.89105 207.748483 22.551907 20.958132 53.152374 31.158288 86.22319 31.158288 45.9007 0 96.503035-19.603424 136.745837-57.13681 23.428482-21.834708 43.350661-49.885136 57.614942-79.369961 14.343969 29.484825 34.266148 57.535253 57.69463 79.369961 40.242802 37.533385 90.845136 57.136809 136.745836 57.13681 32.991128 0 63.671284-10.200156 86.223191-31.158288 53.869572-50.203891 41.358444-143.200623-27.89105-207.748483-15.220545-14.184591-33.469261-26.934786-52.992997-37.85214h166.230662c41.039689 0 74.588638-33.548949 74.588638-74.588638v-260.980545H505.425681V586.409339zM348.279533 783.081089c-24.703502 22.95035-56.419611 36.656809-84.868482 36.65681-8.526693 0-24.305058-1.354708-34.345837-10.757977-2.310973-2.071907-9.243891-8.526693-9.243891-24.544124 0-18.00965 9.722023-46.219455 37.134942-71.799533 33.469261-31.158288 88.693541-54.746148 128.45821-54.746148 14.025214 0 18.965914 3.028171 18.965914 3.10786 6.534475 12.989261-9.403268 78.573074-56.100856 122.083112zM512.358599 659.882335s0 0.079689 0 0c1.035953 0 6.375097-1.992218 17.929961-1.992218 39.764669 0 94.988949 23.508171 128.45821 54.746148C686.159689 738.216342 695.881712 766.426148 695.881712 784.435798c0 16.017432-6.932918 22.472218-9.243891 24.623813-10.120467 9.403268-25.819144 10.757977-34.345837 10.757977-28.52856 0-60.244669-13.706459-84.868482-36.65681-46.458521-43.270973-62.475953-108.296965-55.064903-123.278443z m-88.374786-786.527627H84.988016c-41.039689 0-74.588638 33.548949-74.588639 74.588638V202.070661h413.584436v-328.715953z m0 0"  horiz-adv-x="1115" />

    
    <glyph glyph-name="quanxian" unicode="&#59755;" d="M147.142065-127.21230800000001c-40.327563 0-73.015652 30.512232-73.015653 68.161641V452.033784c0 37.615162 32.689231 68.129677 73.015653 68.129676h730.122274c40.316147 0 73.009944-30.514515 73.009944-68.129676v-511.084451c0-37.649409-32.694939-68.167349-73.011086-68.162782H147.140923z m365.058854 476.999064c-60.50276 0-109.521195-45.738667-109.521195-102.205931 0-37.72247 22.180959-70.343206 54.761739-88.025186V62.301894999999945c0-29.369507 24.523487-53.22631 54.76288-53.22631 30.224553 0 54.758314 23.859086 54.758315 53.22631v97.254885c32.583064 17.683122 54.757173 50.302716 54.757173 88.026328 0 56.460415-49.019576 102.199081-109.515488 102.199082l-0.003424 0.006849z m0 442.960481c-120.965565 0-219.037824-91.520713-219.037824-204.420994H183.646466C183.646466 757.665249 330.739443 894.955452 512.199777 894.955452c181.454627 0 328.552169-137.290203 328.552169-306.629209h-109.516628c0.001142 112.900281-98.076825 204.420994-219.034399 204.420994z"  horiz-adv-x="1024" />

    
    <glyph glyph-name="chengshiguanli1" unicode="&#58891;" d="M1097.142857-54.857143h73.142857v-73.142857H0v73.142857h73.142857V822.857143a73.142857 73.142857 0 0 0 73.142857 73.142857h512a73.142857 73.142857 0 0 0 73.142857-73.142857v-877.714286h73.142858V603.428571h219.428571a73.142857 73.142857 0 0 0 73.142857-73.142857v-585.142857zM219.428571 603.428571v-73.142857h146.285715V603.428571H219.428571z m219.428572 0v-73.142857h146.285714V603.428571H438.857143zM219.428571 457.142857v-73.142857h146.285715V457.142857H219.428571z m219.428572 0v-73.142857h146.285714V457.142857H438.857143zM219.428571 310.857143v-73.142857h146.285715V310.857143H219.428571z m219.428572 0v-73.142857h146.285714V310.857143H438.857143z m-219.428572-146.285714v-73.142858h146.285715v73.142858H219.428571z m219.428572 0v-73.142858h146.285714v73.142858H438.857143z m438.857143 292.571428v-73.142857h146.285714V457.142857h-146.285714z m0-146.285714v-73.142857h146.285714V310.857143h-146.285714z m0-146.285714v-73.142858h146.285714v73.142858h-146.285714z"  horiz-adv-x="1170" />

    
    <glyph glyph-name="chengshiguanli2" unicode="&#58929;" d="M960 0h64v-64H0v64h64V768a64 64 0 0 0 64 64h448a64 64 0 0 0 64-64v-768h64V576h192a64 64 0 0 0 64-64v-512zM192 576v-64h128V576H192z m192 0v-64h128V576H384zM192 448v-64h128V448H192z m192 0v-64h128V448H384zM192 320v-64h128V320H192z m192 0v-64h128V320H384z m-192-128v-64h128v64H192z m192 0v-64h128v64H384z m384 256v-64h128V448h-128z m0-128v-64h128V320h-128z m0-128v-64h128v64h-128z"  horiz-adv-x="1024" />

    
    <glyph glyph-name="shangpinguanli4" unicode="&#58913;" d="M1001.3184-128H124.8768C45.1072-128-10.5984-50.3296 1.792 42.6496L108.6464 792.576C117.76 851.2512 170.3936 895.0784 233.0624 896h660.736c62.5664-1.2288 115.0976-45.056 124.2112-103.68l106.5984-749.6704C1136.9984-49.664 1082.0096-128 1001.3184-128zM843.52 762.6752c-28.5184-0.3072-54.0672-16.896-64.6656-41.984-10.6496-25.088-4.2496-53.76 16.2304-72.6016-15.104-111.616-112.7424-196.8128-231.5264-202.0352-119.04 4.9152-217.088 90.2144-232.192 202.0352a64 64 0 0 1 14.848 78.6944c-14.08 26.4704-44.9536 40.9088-75.7248 35.4816-30.4128-4.9664-53.9136-27.9552-58.0096-56.8832-4.096-28.928 12.0832-57.0368 39.9872-69.4272 18.688-151.04 150.528-266.8544 311.0912-273.3056 159.9488 7.168 290.9184 122.7776 309.504 273.3056 29.184 13.5168 44.8512 44.1856 37.888 74.24s-34.7136 51.712-67.2256 52.48h-0.2048z"  horiz-adv-x="1126" />

    
    <glyph glyph-name="ziyuan" unicode="&#58881;" d="M173.683636 791.752587h763.239989a52.123707 52.123707 0 0 1 0 104.247413h-763.239989a52.123707 52.123707 0 1 1 0-104.247413zM1013.43378 739.815036H98.290418L0 479.568816a138.872447 138.872447 0 0 1 277.744893 0 138.872447 138.872447 0 0 1 277.744894 0 138.872447 138.872447 0 0 1 277.744893 0 138.872447 138.872447 0 1 1 277.744894 0zM370.450629 25.534101c-2.978498 4.095434-5.584683 8.004712-8.190869 12.286302a77.440935 77.440935 0 0 0-4.467746 7.6324h-148.924876V301.603589a191.926934 191.926934 0 0 0-27.364946-8.190868l-6.701619-1.489249h-3.909278c-4.840058 0-9.866273-1.489249-14.706331-2.047717h-17.312517a190.251529 190.251529 0 0 0-34.81119 3.35081v-350.531926a51.93755 51.93755 0 0 1 52.309863-53.612956h304.365215zM972.107127 288.386507h-17.498673a83.39793 83.39793 0 0 0-14.706331 2.047717h-3.164654l-5.956995 1.489248a198.628553 198.628553 0 0 0-28.10957 8.377025v-255.03385h-148.924876a76.137843 76.137843 0 0 0-4.28159-7.073932l-1.303093-2.047717c-2.233873-3.536966-4.653902-7.073932-7.073932-10.797053l-90.658018-136.452418h304.179059a51.93755 51.93755 0 0 1 51.937551 51.937551V291.737316a194.160807 194.160807 0 0 0-34.81119-3.350809zM704.228507 219.508752a162.328115 162.328115 0 1 1-290.217352-144.270974v-1.861561l1.116936-1.861561 6.887776-10.424741 123.049179-184.853002a9.680117 9.680117 0 0 1 16.009424 0l123.607647 186.156095 5.956995 9.121648 1.489248 2.233873v2.047717a162.700427 162.700427 0 0 1 8.749337 143.898662zM554.37285 65.185349a87.493365 87.493365 0 1 0 61.803824 25.689541 87.493365 87.493365 0 0 0-61.803824-25.689541z"  horiz-adv-x="1111" />

    


  </font>
</defs>
</svg>
